<mxfile host="app.diagrams.net" agent="Mozilla/5.0 (Macintosh; Intel Mac OS X 10_15_7) AppleWebKit/537.36 (KHTML, like Gecko) Chrome/131.0.0.0 Safari/537.36" version="24.9.0">
  <diagram name="第 1 页" id="fcTe5amGJxxobm9UvKFS">
    <mxGraphModel dx="909" dy="487" grid="1" gridSize="10" guides="1" tooltips="1" connect="1" arrows="1" fold="1" page="1" pageScale="1" pageWidth="827" pageHeight="1169" math="0" shadow="0">
      <root>
        <mxCell id="0" />
        <mxCell id="1" parent="0" />
        <mxCell id="A5PXprxtYCudg2E5OCXR-20" value="" style="rounded=0;whiteSpace=wrap;html=1;dashed=1;fillColor=#d5e8d4;strokeColor=#82b366;" vertex="1" parent="1">
          <mxGeometry x="90" y="490" width="600" height="180" as="geometry" />
        </mxCell>
        <mxCell id="A5PXprxtYCudg2E5OCXR-17" value="" style="rounded=0;whiteSpace=wrap;html=1;dashed=1;direction=south;fillColor=#f8cecc;strokeColor=#b85450;" vertex="1" parent="1">
          <mxGeometry x="90" y="400" width="600" height="90" as="geometry" />
        </mxCell>
        <mxCell id="A5PXprxtYCudg2E5OCXR-3" value="" style="edgeStyle=orthogonalEdgeStyle;rounded=0;orthogonalLoop=1;jettySize=auto;html=1;" edge="1" parent="1" source="csBJLDKP0mNBIWBqDSgn-10" target="A5PXprxtYCudg2E5OCXR-2">
          <mxGeometry relative="1" as="geometry" />
        </mxCell>
        <mxCell id="csBJLDKP0mNBIWBqDSgn-10" value="12-24V to 5V MicroUSB converter" style="rounded=1;whiteSpace=wrap;html=1;" parent="1" vertex="1">
          <mxGeometry x="150" y="570" width="120" height="60" as="geometry" />
        </mxCell>
        <mxCell id="csBJLDKP0mNBIWBqDSgn-12" value="" style="shape=flexArrow;endArrow=classic;startArrow=classic;html=1;rounded=0;entryX=0;entryY=0.5;entryDx=0;entryDy=0;" parent="1" target="csBJLDKP0mNBIWBqDSgn-21" edge="1">
          <mxGeometry width="100" height="100" relative="1" as="geometry">
            <mxPoint x="110" y="450" as="sourcePoint" />
            <mxPoint x="320" y="450" as="targetPoint" />
          </mxGeometry>
        </mxCell>
        <mxCell id="csBJLDKP0mNBIWBqDSgn-32" value="Battery Set" style="edgeLabel;html=1;align=center;verticalAlign=middle;resizable=0;points=[];" parent="csBJLDKP0mNBIWBqDSgn-12" vertex="1" connectable="0">
          <mxGeometry x="-0.875" y="1" relative="1" as="geometry">
            <mxPoint x="5" y="21" as="offset" />
          </mxGeometry>
        </mxCell>
        <mxCell id="csBJLDKP0mNBIWBqDSgn-13" value="" style="shape=flexArrow;endArrow=classic;html=1;rounded=0;" parent="1" edge="1">
          <mxGeometry width="50" height="50" relative="1" as="geometry">
            <mxPoint x="209.5" y="455" as="sourcePoint" />
            <mxPoint x="209.5" y="570" as="targetPoint" />
          </mxGeometry>
        </mxCell>
        <mxCell id="csBJLDKP0mNBIWBqDSgn-21" value="Transister" style="rounded=1;whiteSpace=wrap;html=1;" parent="1" vertex="1">
          <mxGeometry x="350" y="420" width="80" height="60" as="geometry" />
        </mxCell>
        <mxCell id="csBJLDKP0mNBIWBqDSgn-27" value="" style="shape=flexArrow;endArrow=classic;startArrow=classic;html=1;rounded=0;entryX=0;entryY=0.5;entryDx=0;entryDy=0;" parent="1" edge="1">
          <mxGeometry width="100" height="100" relative="1" as="geometry">
            <mxPoint x="430" y="449.6" as="sourcePoint" />
            <mxPoint x="670" y="449.6" as="targetPoint" />
          </mxGeometry>
        </mxCell>
        <mxCell id="csBJLDKP0mNBIWBqDSgn-33" value="Charging Port" style="edgeLabel;html=1;align=center;verticalAlign=middle;resizable=0;points=[];" parent="csBJLDKP0mNBIWBqDSgn-27" vertex="1" connectable="0">
          <mxGeometry x="0.9317" y="-3" relative="1" as="geometry">
            <mxPoint x="-22" y="17" as="offset" />
          </mxGeometry>
        </mxCell>
        <mxCell id="A5PXprxtYCudg2E5OCXR-2" value="Nordic nRF9160 DK" style="rounded=1;whiteSpace=wrap;html=1;" vertex="1" parent="1">
          <mxGeometry x="325" y="535" width="130" height="130" as="geometry" />
        </mxCell>
        <mxCell id="A5PXprxtYCudg2E5OCXR-4" value="INA219&lt;div&gt;Voltage &amp;amp; Current Monitor&lt;/div&gt;" style="rounded=1;whiteSpace=wrap;html=1;" vertex="1" parent="1">
          <mxGeometry x="491" y="500" width="120" height="60" as="geometry" />
        </mxCell>
        <mxCell id="A5PXprxtYCudg2E5OCXR-5" value="" style="endArrow=classic;html=1;rounded=0;" edge="1" parent="1" target="A5PXprxtYCudg2E5OCXR-4">
          <mxGeometry width="50" height="50" relative="1" as="geometry">
            <mxPoint x="550" y="455" as="sourcePoint" />
            <mxPoint x="510" y="585" as="targetPoint" />
          </mxGeometry>
        </mxCell>
        <mxCell id="A5PXprxtYCudg2E5OCXR-6" value="BME688&lt;div&gt;Temp &amp;amp; CO2&lt;/div&gt;&lt;div&gt;Sensor&lt;/div&gt;" style="rounded=1;whiteSpace=wrap;html=1;" vertex="1" parent="1">
          <mxGeometry x="491" y="605" width="120" height="60" as="geometry" />
        </mxCell>
        <mxCell id="A5PXprxtYCudg2E5OCXR-8" value="" style="endArrow=classic;startArrow=classic;html=1;rounded=0;entryX=0.5;entryY=1;entryDx=0;entryDy=0;exitX=0.5;exitY=0;exitDx=0;exitDy=0;" edge="1" parent="1" source="A5PXprxtYCudg2E5OCXR-6" target="A5PXprxtYCudg2E5OCXR-4">
          <mxGeometry width="50" height="50" relative="1" as="geometry">
            <mxPoint x="440" y="630" as="sourcePoint" />
            <mxPoint x="490" y="580" as="targetPoint" />
          </mxGeometry>
        </mxCell>
        <mxCell id="A5PXprxtYCudg2E5OCXR-10" value="" style="endArrow=none;html=1;rounded=0;exitX=1.006;exitY=0.342;exitDx=0;exitDy=0;exitPerimeter=0;" edge="1" parent="1" source="A5PXprxtYCudg2E5OCXR-2">
          <mxGeometry width="50" height="50" relative="1" as="geometry">
            <mxPoint x="440" y="630" as="sourcePoint" />
            <mxPoint x="550" y="580" as="targetPoint" />
          </mxGeometry>
        </mxCell>
        <mxCell id="A5PXprxtYCudg2E5OCXR-11" value="I2C" style="edgeLabel;html=1;align=center;verticalAlign=middle;resizable=0;points=[];" vertex="1" connectable="0" parent="A5PXprxtYCudg2E5OCXR-10">
          <mxGeometry x="0.1127" relative="1" as="geometry">
            <mxPoint x="-8" as="offset" />
          </mxGeometry>
        </mxCell>
        <mxCell id="A5PXprxtYCudg2E5OCXR-12" value="nRF Cloud" style="ellipse;shape=cloud;whiteSpace=wrap;html=1;" vertex="1" parent="1">
          <mxGeometry x="160" y="680" width="120" height="80" as="geometry" />
        </mxCell>
        <mxCell id="A5PXprxtYCudg2E5OCXR-13" value="Memfault Cloud" style="ellipse;shape=cloud;whiteSpace=wrap;html=1;" vertex="1" parent="1">
          <mxGeometry x="300" y="720" width="120" height="80" as="geometry" />
        </mxCell>
        <mxCell id="A5PXprxtYCudg2E5OCXR-14" value="" style="endArrow=classic;html=1;rounded=0;exitX=0;exitY=1;exitDx=0;exitDy=0;" edge="1" parent="1" source="A5PXprxtYCudg2E5OCXR-2" target="A5PXprxtYCudg2E5OCXR-12">
          <mxGeometry width="50" height="50" relative="1" as="geometry">
            <mxPoint x="330" y="700" as="sourcePoint" />
            <mxPoint x="380" y="650" as="targetPoint" />
          </mxGeometry>
        </mxCell>
        <mxCell id="A5PXprxtYCudg2E5OCXR-16" value="Cellular" style="edgeLabel;html=1;align=center;verticalAlign=middle;resizable=0;points=[];" vertex="1" connectable="0" parent="A5PXprxtYCudg2E5OCXR-14">
          <mxGeometry x="-0.159" y="-3" relative="1" as="geometry">
            <mxPoint x="11" y="25" as="offset" />
          </mxGeometry>
        </mxCell>
        <mxCell id="A5PXprxtYCudg2E5OCXR-15" value="" style="endArrow=classic;html=1;rounded=0;exitX=0;exitY=1;exitDx=0;exitDy=0;" edge="1" parent="1" source="A5PXprxtYCudg2E5OCXR-2" target="A5PXprxtYCudg2E5OCXR-13">
          <mxGeometry width="50" height="50" relative="1" as="geometry">
            <mxPoint x="330" y="700" as="sourcePoint" />
            <mxPoint x="380" y="650" as="targetPoint" />
          </mxGeometry>
        </mxCell>
        <mxCell id="A5PXprxtYCudg2E5OCXR-18" value="&lt;font style=&quot;font-size: 16px;&quot;&gt;12-36V, 5-20A Charging Circuit&lt;/font&gt;" style="text;html=1;align=center;verticalAlign=middle;whiteSpace=wrap;rounded=0;" vertex="1" parent="1">
          <mxGeometry x="455" y="400" width="225" height="30" as="geometry" />
        </mxCell>
      </root>
    </mxGraphModel>
  </diagram>
</mxfile>
